Coordinates
version=1
nRows=29
nColumns=24
inDegrees=yes

Units are S.I. units (second, meters, Newtons, ...)
Angles are in degrees.

endheader
time	pelvis_tilt	pelvis_list	pelvis_rotation	pelvis_tx	pelvis_ty	pelvis_tz	hip_flexion_r	hip_adduction_r	hip_rotation_r	knee_angle_r	ankle_angle_r	subtalar_angle_r	mtp_angle_r	hip_flexion_l	hip_adduction_l	hip_rotation_l	knee_angle_l	ankle_angle_l	subtalar_angle_l	mtp_angle_l	lumbar_extension	lumbar_bending	lumbar_rotation
      0.80433333	     -1.09120096	     -5.75300807	      2.90107858	     -0.32594373	      1.00138663	      0.32467077	     10.87164132	      9.02607711	     -1.61872450	    -19.44434919	     11.75314339	    -10.89566066	     -3.79739886	     12.88564557	     -6.73605250	      0.72955657	    -70.92427376	     -6.21238131	     -5.28573642	      3.44154361	    -10.27335724	     14.33798266	     -4.68211250
      0.80850000	     -0.99248126	     -5.55776329	      2.90275850	     -0.32071558	      1.00260400	      0.32501529	     10.16499322	      8.90653324	     -1.36492995	    -18.90755575	     11.70757069	    -11.12524491	     -3.82775468	     13.38375109	     -6.58379624	      0.62083347	    -70.92567752	     -5.85704537	     -5.75267021	      3.20403823	    -10.41604896	     13.99796465	     -4.26726447
      0.81266667	     -0.91093219	     -5.35657156	      2.90008188	     -0.31554122	      1.00372906	      0.32532465	      9.51655480	      8.76413673	     -1.18688112	    -18.44995917	     11.65310370	    -11.25622574	     -3.85273949	     13.90002918	     -6.41852711	      0.50654237	    -70.90243625	     -5.38038199	     -6.21546891	      3.02014690	    -10.55875201	     13.67269124	     -4.01025976
      0.81683333	     -0.79973169	     -5.15456906	      2.89531851	     -0.31029830	      1.00492504	      0.32564108	      8.78864135	      8.62851510	     -0.95516461	    -17.89824018	     11.61236665	    -11.44253662	     -3.88702807	     14.35940696	     -6.25443350	      0.38579122	    -70.79714783	     -5.00235137	     -6.65603723	      2.76923809	    -10.70451056	     13.34100103	     -3.65119024
      0.82100000	     -0.76058347	     -4.94330945	      2.88334794	     -0.30513273	      1.00592966	      0.32593375	      8.18972888	      8.46453243	     -0.80121214	    -17.44941782	     11.55942922	    -11.52884404	     -3.90976619	     14.90187071	     -6.06912513	      0.26488671	    -70.67842951	     -4.50740418	     -7.08226277	      2.62118354	    -10.78642776	     13.00756438	     -3.45898572
      0.82516667	     -0.62958033	     -4.71846020	      2.86550663	     -0.29987274	      1.00712145	      0.32623949	      7.42879733	      8.30027907	     -0.56731694	    -16.87764020	     11.51859182	    -11.71913260	     -3.95085627	     15.30509613	     -5.87758651	      0.12460297	    -70.45135678	     -4.15128081	     -7.50562514	      2.34586915	    -10.95787563	     12.65215453	     -3.06868193
      0.82933333	     -0.53049947	     -4.49773246	      2.84581487	     -0.29464863	      1.00820430	      0.32652269	      6.72456220	      8.12880999	     -0.37943657	    -16.34579254	     11.45283947	    -11.85936157	     -3.99727989	     15.74064548	     -5.68544259	     -0.01388302	    -70.19771890	     -3.70773385	     -7.89076555	      2.04576756	    -11.10400113	     12.30763037	     -2.77039770
      0.83350000	     -0.47862096	     -4.29055028	      2.81462511	     -0.28944837	      1.00917253	      0.32681838	      6.07323158	      7.97088357	     -0.16977923	    -15.81179385	     11.33720024	    -12.04009857	     -4.54669666	     16.22560947	     -5.50240550	     -0.15116422	    -69.92041668	     -3.16592556	     -8.19794175	     -1.73580774	    -11.17307635	     11.98648473	     -2.54830255
      0.83766667	     -0.38343056	     -4.03107570	      2.80908018	     -0.28423734	      1.01016730	      0.32701510	      5.39418942	      7.73711749	     -0.07803750	    -15.33123654	     11.37439187	    -12.03749592	     -4.56166921	     16.63889026	     -5.24594081	     -0.27031140	    -69.55939198	     -2.71739993	     -8.53785199	     -1.75686500	    -11.31106869	     11.61215318	     -2.32062382
      0.84183333	     -0.30402764	     -3.79060800	      2.78791212	     -0.27903006	      1.01111664	      0.32722741	      4.72134519	      7.52583397	      0.04989987	    -14.81846692	     11.33573446	    -12.10139745	     -4.58333521	     17.05744356	     -5.01210193	     -0.39793936	    -69.15242869	     -2.27438609	     -8.85776353	     -1.79645050	    -11.42354024	     11.25513466	     -2.07106824
      0.84600000	     -0.21688705	     -3.55671573	      2.77086325	     -0.27382455	      1.01202754	      0.32742367	      4.03761032	      7.31963310	      0.17062198	    -14.29672745	     11.28734074	    -12.17251373	     -4.60929484	     17.45653541	     -4.78263240	     -0.51773838	    -68.70054326	     -1.81867218	     -9.13103227	     -1.85062380	    -11.54435940	     10.90978121	     -1.83822549
      0.85016667	     -0.20719658	     -3.31422197	      2.75315060	     -0.26862876	      1.01278685	      0.32757394	      3.46399376	      7.08931027	      0.22938437	    -13.83027618	     11.23613871	    -12.17872945	     -4.62446961	     17.93034519	     -4.52890627	     -0.62930355	    -68.20885888	     -1.32193638	     -9.36656827	     -1.87769962	    -11.55450273	     10.58092946	     -1.72456532
      0.85433333	     -0.08762500	     -3.07565865	      2.74930124	     -0.26345079	      1.01366928	      0.32773335	      2.73401278	      6.87648846	      0.35489280	    -13.27839082	     11.20248851	    -12.26020146	     -4.65439319	     18.26842625	     -4.27876372	     -0.71568694	    -67.65137136	     -0.91425941	     -9.58005226	     -1.95016616	    -11.74708256	     10.21367907	     -1.45287656
      0.85850000	     -0.08725773	     -2.85317376	      2.73648239	     -0.25826114	      1.01430596	      0.32784934	      2.17433426	      6.66192260	      0.38510881	    -12.81184085	     11.14772452	    -12.26159559	     -4.67258854	     18.73107466	     -4.03938348	     -0.81150372	    -67.07332424	     -0.41462538	     -9.75372405	     -1.98725987	    -11.73947707	      9.90563839	     -1.33399653
      0.86266667	      0.03160170	     -2.61163577	      2.73311892	     -0.25307728	      1.01510233	      0.32795065	      1.45184752	      6.43650240	      0.46900267	    -12.27201492	     11.12385071	    -12.32612808	     -4.70610562	     19.03751563	     -3.77450212	     -0.88628641	    -66.41467816	      0.00453019	     -9.87581291	     -2.07282263	    -11.90103369	      9.58411731	     -1.08795749
      0.86683333	      0.08011295	     -2.39841217	      2.72936632	     -0.24791049	      1.01571956	      0.32805228	      0.82321031	      6.23494100	      0.51730123	    -11.76048304	     11.07578065	    -12.36474877	     -4.74753823	     19.42246395	     -3.54060924	     -0.96112790	    -65.73950560	      0.45912457	     -9.98063423	     -2.18205833	    -11.98003358	      9.25022647	     -0.88643903
      0.87100000	      0.05338270	     -2.18796893	      2.73291021	     -0.24275745	      1.01617746	      0.32808536	      0.30387221	      6.02396824	      0.50841752	    -11.30688676	     11.02569258	    -12.33447987	     -4.76751336	     19.88031627	     -3.28548899	     -1.00626822	    -65.02668213	      0.92579633	    -10.06095625	     -2.22566545	    -11.95368881	      8.96030025	     -0.81078573
      0.87516667	      0.12555929	     -1.95865880	      2.73748983	     -0.23759331	      1.01676121	      0.32810241	     -0.33983146	      5.79683640	      0.51145134	    -10.81977258	     10.98886187	    -12.33556318	     -4.79827037	     20.19833087	     -3.00880583	     -1.04231426	    -64.23270251	      1.35054228	    -10.08423703	     -2.30079048	    -12.04804910	      8.67271215	     -0.65147160
      0.87933333	      0.19418042	     -1.76804291	      2.74295914	     -0.23243794	      1.01725678	      0.32813251	     -0.98987924	      5.61399538	      0.53529628	    -10.30233119	     10.96458723	    -12.33748771	     -4.84529784	     20.52062025	     -2.77987460	     -1.07734356	    -63.42136374	      1.77353141	    -10.10056038	     -2.42626417	    -12.16215570	      8.38291929	     -0.45920047
      0.88350000	      0.17030089	     -1.57435325	      2.75394827	     -0.22729901	      1.01757787	      0.32809964	     -1.50190287	      5.41507324	      0.48825962	     -9.86337488	     10.91119939	    -12.30032088	     -4.87036861	     20.93045940	     -2.52325963	     -1.08210951	    -62.56540895	      2.19574326	    -10.08203304	     -2.48373676	    -12.13547355	      8.13250798	     -0.37822750
      0.88766667	      0.24898660	     -1.38374436	      2.76873345	     -0.22214512	      1.01799174	      0.32807970	     -2.15451846	      5.22701177	      0.46288567	     -9.36282246	     10.89881538	    -12.25769063	     -4.91290046	     21.20914951	     -2.28044092	     -1.08901066	    -61.65638174	      2.58907548	    -10.04141618	     -2.59715873	    -12.25654228	      7.85815165	     -0.22445128
      0.89183333	      0.26861358	     -1.19059123	      2.77895248	     -0.21699275	      1.01829937	      0.32802789	     -2.72510058	      5.02820855	      0.40940494	     -8.89987232	     10.86564026	    -12.19866405	     -4.95240763	     21.53227362	     -2.02092304	     -1.08316918	    -60.69350857	      2.96428135	     -9.98938720	     -2.70160217	    -12.29528828	      7.59745784	     -0.10695256
      0.89600000	      0.28867335	     -1.02711242	      2.79071781	     -0.21184354	      1.01853462	      0.32795862	     -3.29221762	      4.86041516	      0.35352976	     -8.44125534	     10.82456018	    -12.12617252	     -4.99385185	     21.84563557	     -1.78931873	     -1.05866938	    -59.69889942	      3.33500458	     -9.91526688	     -2.81327058	    -12.33970077	      7.37540915	      0.01224288
      0.90016667	      0.30328228	     -0.84695510	      2.80173917	     -0.20668377	      1.01874309	      0.32787598	     -3.85070614	      4.67207017	      0.27536240	     -7.99122530	     10.79183381	    -12.03199378	     -5.03063604	     22.13983732	     -1.53379163	     -1.02935339	    -58.64163925	      3.66611519	     -9.83858126	     -2.91357208	    -12.37050877	      7.13610616	      0.11724555
      0.90433333	      0.31459490	     -0.70012765	      2.81153643	     -0.20153161	      1.01886732	      0.32777680	     -4.40062552	      4.51740556	      0.19616024	     -7.54862995	     10.75795560	    -11.92014030	     -5.06740949	     22.42995978	     -1.31242317	     -0.98615719	    -57.55793177	      3.99204602	     -9.74128365	     -3.01615875	    -12.40852555	      6.93637149	      0.22941354
      0.90850000	      0.28175057	     -0.53850656	      2.81598558	     -0.19636020	      1.01891604	      0.32766580	     -4.88974728	      4.34154935	      0.08843173	     -7.13551624	     10.69739673	    -11.80457440	     -5.08731400	     22.74091195	     -1.06780070	     -0.93874887	    -56.40977304	      4.27837069	     -9.64279146	     -3.06764533	    -12.37470029	      6.72668091	      0.30453051
      0.91266667	      0.34181429	     -0.39164061	      2.82778582	     -0.19117004	      1.01903049	      0.32754858	     -5.50393937	      4.18705006	     -0.01603017	     -6.67289496	     10.69782856	    -11.64256581	     -5.11385138	     22.93341318	     -0.84524095	     -0.88423530	    -55.21812653	      4.53064378	     -9.55594913	     -3.15243667	    -12.47304977	      6.52513776	      0.43433991
      0.91683333	      0.34795611	     -0.26416612	      2.83225318	     -0.18598521	      1.01902489	      0.32742597	     -6.04350594	      4.04885538	     -0.12448445	     -6.24201814	     10.66604781	    -11.48250224	     -5.13849133	     23.16957533	     -0.63795559	     -0.81753110	    -53.98661983	      4.76623608	     -9.45567168	     -3.23352787	    -12.49975630	      6.34845894	      0.55001251
      0.92100000	      0.34109635	     -0.13624371	      2.83434400	     -0.18078363	      1.01896326	      0.32729771	     -6.56703331	      3.90793807	     -0.24112977	     -5.81734732	     10.63142636	    -11.30983387	     -5.15965003	     23.39737862	     -0.42837615	     -0.74548255	    -52.70295214	      4.96634678	     -9.36380511	     -3.30947451	    -12.51047509	      6.17241890	      0.66254088
